<?xml version="1.0" encoding="UTF-8"?>
<svg xmlns="http://www.w3.org/2000/svg" xmlns:xlink="http://www.w3.org/1999/xlink" width="32px" height="32px" viewBox="0 0 32 32" version="1.1">
<g id="surface1">
<path style=" stroke:none;fill-rule:nonzero;fill:rgb(31.372549%,29.411765%,35.294118%);fill-opacity:1;" d="M 8.828125 8.277344 C 8.828125 10.714844 6.851562 12.691406 4.414062 12.691406 C 1.976562 12.691406 0 10.714844 0 8.277344 C 0 5.839844 1.976562 3.863281 4.414062 3.863281 C 6.851562 3.863281 8.828125 5.839844 8.828125 8.277344 Z M 8.828125 8.277344 "/>
<path style=" stroke:none;fill-rule:nonzero;fill:rgb(38.431373%,36.470588%,41.960784%);fill-opacity:1;" d="M 6.621094 8.277344 C 6.621094 9.496094 5.632812 10.484375 4.414062 10.484375 C 3.195312 10.484375 2.207031 9.496094 2.207031 8.277344 C 2.207031 7.058594 3.195312 6.070312 4.414062 6.070312 C 5.632812 6.070312 6.621094 7.058594 6.621094 8.277344 Z M 6.621094 8.277344 "/>
<path style=" stroke:none;fill-rule:nonzero;fill:rgb(31.372549%,29.411765%,35.294118%);fill-opacity:1;" d="M 32 8.277344 C 32 10.714844 30.023438 12.691406 27.585938 12.691406 C 25.148438 12.691406 23.171875 10.714844 23.171875 8.277344 C 23.171875 5.839844 25.148438 3.863281 27.585938 3.863281 C 30.023438 3.863281 32 5.839844 32 8.277344 Z M 32 8.277344 "/>
<path style=" stroke:none;fill-rule:nonzero;fill:rgb(38.431373%,36.470588%,41.960784%);fill-opacity:1;" d="M 29.792969 8.277344 C 29.792969 9.496094 28.804688 10.484375 27.585938 10.484375 C 26.367188 10.484375 25.378906 9.496094 25.378906 8.277344 C 25.378906 7.058594 26.367188 6.070312 27.585938 6.070312 C 28.804688 6.070312 29.792969 7.058594 29.792969 8.277344 Z M 29.792969 8.277344 "/>
<path style=" stroke:none;fill-rule:nonzero;fill:rgb(92.941176%,92.941176%,93.333333%);fill-opacity:1;" d="M 30.898438 16.550781 C 30.898438 10.152344 24.226562 4.964844 16 4.964844 C 7.773438 4.964844 1.101562 10.152344 1.101562 16.550781 C 1.101562 22.949219 7.773438 28.136719 16 28.136719 C 24.226562 28.136719 30.898438 22.949219 30.898438 16.550781 Z M 30.898438 16.550781 "/>
<path style=" stroke:none;fill-rule:nonzero;fill:rgb(86.27451%,85.882353%,87.058824%);fill-opacity:1;" d="M 20.414062 27.035156 C 19.570312 27.035156 18.746094 26.953125 17.953125 26.792969 C 17.667969 26.738281 17.667969 26.339844 17.949219 26.28125 C 20.34375 25.757812 22.070312 24.253906 22.070312 22.070312 C 22.070312 19.863281 19.101562 16.550781 16 16.550781 C 13.472656 16.550781 11.039062 18.75 10.226562 20.757812 C 10.121094 21.011719 9.765625 21.015625 9.632812 20.777344 C 8.765625 19.179688 8.277344 17.371094 8.277344 15.449219 C 8.277344 10.828125 11.105469 6.84375 15.203125 4.984375 C 7.347656 5.304688 1.101562 10.359375 1.101562 16.550781 C 1.101562 22.949219 7.773438 28.136719 16 28.136719 C 18.554688 28.136719 20.960938 27.636719 23.0625 26.753906 C 22.210938 26.9375 21.324219 27.035156 20.414062 27.035156 Z M 20.414062 27.035156 "/>
<path style=" stroke:none;fill-rule:nonzero;fill:rgb(31.372549%,29.411765%,35.294118%);fill-opacity:1;" d="M 11.585938 14.898438 C 11.585938 16.550781 10.484375 20.964844 7.722656 20.964844 C 6.070312 20.964844 4.414062 19.308594 4.964844 17.101562 C 5.515625 14.898438 7.722656 12.691406 9.378906 12.691406 C 10.597656 12.691406 11.585938 13.679688 11.585938 14.898438 Z M 11.585938 14.898438 "/>
<path style=" stroke:none;fill-rule:nonzero;fill:rgb(31.372549%,29.411765%,35.294118%);fill-opacity:1;" d="M 20.414062 14.898438 C 20.414062 16.550781 21.515625 20.964844 24.277344 20.964844 C 25.929688 20.964844 27.585938 19.308594 27.035156 17.101562 C 26.484375 14.898438 24.277344 12.691406 22.621094 12.691406 C 21.402344 12.691406 20.414062 13.679688 20.414062 14.898438 Z M 20.414062 14.898438 "/>
<path style=" stroke:none;fill-rule:nonzero;fill:rgb(31.372549%,29.411765%,35.294118%);fill-opacity:1;" d="M 21.355469 21.679688 C 21.140625 21.464844 20.789062 21.464844 20.574219 21.679688 L 20.058594 22.195312 C 19.8125 22.441406 19.460938 22.558594 19.121094 22.507812 L 16.550781 22.140625 L 16.550781 20.664062 C 16.613281 20.640625 16.679688 20.625 16.742188 20.59375 L 17.644531 20.144531 C 17.988281 19.972656 18.207031 19.617188 18.207031 19.230469 L 18.207031 19.226562 C 18.207031 18.664062 17.75 18.207031 17.1875 18.207031 L 14.8125 18.207031 C 14.25 18.207031 13.792969 18.664062 13.792969 19.226562 L 13.792969 19.230469 C 13.792969 19.617188 14.011719 19.972656 14.355469 20.144531 L 15.261719 20.59375 C 15.320312 20.625 15.386719 20.640625 15.449219 20.664062 L 15.449219 22.140625 L 12.878906 22.507812 C 12.535156 22.558594 12.1875 22.441406 11.941406 22.195312 L 11.425781 21.679688 C 11.210938 21.464844 10.859375 21.464844 10.644531 21.679688 C 10.429688 21.894531 10.429688 22.242188 10.644531 22.460938 L 11.164062 22.976562 C 11.652344 23.464844 12.355469 23.699219 13.035156 23.601562 L 16 23.179688 L 18.964844 23.601562 C 19.066406 23.617188 19.171875 23.625 19.273438 23.625 C 19.851562 23.625 20.421875 23.390625 20.835938 22.976562 L 21.355469 22.460938 C 21.570312 22.242188 21.570312 21.894531 21.355469 21.679688 Z M 21.355469 21.679688 "/>
<path style=" stroke:none;fill-rule:nonzero;fill:rgb(55.294118%,54.117647%,58.039216%);fill-opacity:1;" d="M 9.378906 16.277344 C 8.921875 16.277344 8.550781 15.90625 8.550781 15.449219 L 8.550781 14.898438 C 8.550781 14.4375 8.921875 14.070312 9.378906 14.070312 C 9.835938 14.070312 10.207031 14.4375 10.207031 14.898438 L 10.207031 15.449219 C 10.207031 15.90625 9.835938 16.277344 9.378906 16.277344 Z M 9.378906 16.277344 "/>
<path style=" stroke:none;fill-rule:nonzero;fill:rgb(55.294118%,54.117647%,58.039216%);fill-opacity:1;" d="M 22.621094 16.277344 C 22.164062 16.277344 21.792969 15.90625 21.792969 15.449219 L 21.792969 14.898438 C 21.792969 14.4375 22.164062 14.070312 22.621094 14.070312 C 23.078125 14.070312 23.449219 14.4375 23.449219 14.898438 L 23.449219 15.449219 C 23.449219 15.90625 23.078125 16.277344 22.621094 16.277344 Z M 22.621094 16.277344 "/>
</g>
</svg>
