<?xml version="1.0" encoding="UTF-8"?>
<svg xmlns="http://www.w3.org/2000/svg" xmlns:xlink="http://www.w3.org/1999/xlink" width="12px" height="12px" viewBox="0 0 11 8" version="1.1">
    <g id="surface1">
        <path style=" stroke:none;fill-rule:nonzero;fill:rgb(29.803922%,68.627451%,31.372549%);fill-opacity:1;"
              d="M 6.878906 0.15625 C 6.808594 0.210938 6.746094 0.253906 6.738281 0.257812 C 6.722656 0.269531 6.738281 0.304688 6.910156 0.683594 C 6.980469 0.832031 7.039062 0.960938 7.039062 0.964844 C 7.039062 0.96875 7.03125 0.957031 7.023438 0.945312 L 7.011719 0.917969 L 6.988281 0.960938 C 6.9375 1.070312 6.960938 1.207031 7.085938 1.480469 C 7.105469 1.519531 7.148438 1.617188 7.183594 1.695312 C 7.222656 1.777344 7.253906 1.851562 7.257812 1.863281 C 7.261719 1.875 7.269531 1.886719 7.28125 1.890625 C 7.289062 1.894531 7.296875 1.898438 7.292969 1.898438 C 7.289062 1.902344 7.210938 1.882812 7.113281 1.855469 C 6.300781 1.625 5.628906 1.511719 4.722656 1.445312 C 4.515625 1.429688 3.652344 1.429688 3.425781 1.445312 C 2.535156 1.503906 1.785156 1.625 0.886719 1.851562 C 0.78125 1.878906 0.691406 1.902344 0.691406 1.90625 C 0.6875 1.910156 0.675781 2.027344 0.585938 3.21875 C 0.480469 4.601562 0.464844 4.785156 0.464844 4.785156 C 0.46875 4.789062 0.488281 4.785156 0.511719 4.78125 C 0.554688 4.773438 0.613281 4.769531 0.597656 4.777344 C 0.582031 4.78125 0.597656 5.007812 0.613281 5.066406 C 0.621094 5.09375 0.640625 5.136719 0.65625 5.160156 C 0.746094 5.304688 0.894531 5.328125 1.28125 5.261719 C 2.96875 4.96875 4.425781 4.859375 5.539062 4.941406 C 6.078125 4.980469 6.617188 5.070312 6.828125 5.15625 C 6.863281 5.167969 6.875 5.171875 6.882812 5.164062 C 6.933594 5.117188 6.785156 5.292969 6.6875 5.398438 C 6.503906 5.59375 6.390625 5.699219 5.734375 6.28125 C 5.613281 6.386719 5.519531 6.476562 5.519531 6.484375 C 5.527344 6.507812 5.707031 6.792969 5.714844 6.792969 C 5.71875 6.792969 5.820312 6.742188 5.945312 6.683594 C 6.066406 6.625 6.175781 6.570312 6.1875 6.566406 C 6.21875 6.554688 6.207031 6.566406 6.160156 6.589844 C 6.109375 6.621094 5.910156 6.820312 5.867188 6.890625 C 5.832031 6.941406 5.808594 7.011719 5.808594 7.054688 C 5.808594 7.125 5.863281 7.191406 5.933594 7.210938 C 6.046875 7.242188 6.15625 7.210938 6.601562 7 C 6.679688 6.960938 6.78125 6.914062 6.824219 6.894531 C 6.871094 6.871094 6.949219 6.835938 6.996094 6.8125 C 7.046875 6.789062 7.117188 6.757812 7.160156 6.738281 C 7.199219 6.71875 7.273438 6.683594 7.320312 6.664062 C 7.371094 6.640625 7.441406 6.605469 7.476562 6.589844 C 7.511719 6.574219 7.605469 6.53125 7.683594 6.496094 C 8.019531 6.34375 8.503906 6.128906 8.824219 5.992188 C 9.222656 5.824219 9.292969 5.792969 9.769531 5.601562 C 10.042969 5.488281 10.121094 5.449219 10.195312 5.394531 C 10.335938 5.292969 10.386719 5.15625 10.363281 4.976562 C 10.351562 4.875 10.328125 4.773438 10.3125 4.761719 C 10.304688 4.757812 10.324219 4.746094 10.351562 4.738281 C 10.378906 4.726562 10.398438 4.714844 10.398438 4.710938 C 10.398438 4.699219 10.304688 4.339844 10.273438 4.234375 C 10.089844 3.625 9.78125 3.042969 9.335938 2.464844 C 9.015625 2.046875 8.640625 1.648438 7.851562 0.878906 C 7.625 0.660156 7.347656 0.386719 7.234375 0.269531 C 7.125 0.15625 7.027344 0.0625 7.019531 0.0625 C 7.011719 0.0625 6.949219 0.105469 6.878906 0.15625 Z M 6.878906 0.15625 "/>
    </g>
</svg>
