<?xml version="1.0" encoding="UTF-8"?>
<svg xmlns="http://www.w3.org/2000/svg" xmlns:xlink="http://www.w3.org/1999/xlink" width="16px" height="16px" viewBox="0 0 16 16" version="1.1">
<g id="surface1">
<path style=" stroke:none;fill-rule:nonzero;fill:rgb(61.568627%,90.588235%,97.647059%);fill-opacity:1;" d="M 16 8 C 16 12.417969 12.417969 16 8 16 C 3.582031 16 0 12.417969 0 8 C 0 3.582031 3.582031 0 8 0 C 12.417969 0 16 3.582031 16 8 Z M 16 8 "/>
<path style=" stroke:none;fill-rule:nonzero;fill:rgb(0%,0%,0%);fill-opacity:1;" d="M 13.523438 5.160156 C 13.523438 5.851562 12.964844 6.414062 12.269531 6.414062 C 11.578125 6.414062 11.019531 5.851562 11.019531 5.160156 C 11.019531 4.46875 11.578125 3.90625 12.269531 3.90625 C 12.964844 3.90625 13.523438 4.46875 13.523438 5.160156 Z M 13.523438 5.160156 "/>
<path style=" stroke:none;fill-rule:nonzero;fill:rgb(0%,0%,0%);fill-opacity:1;" d="M 5.078125 5.136719 C 5.078125 5.832031 4.519531 6.390625 3.828125 6.390625 C 3.132812 6.390625 2.574219 5.832031 2.574219 5.136719 C 2.574219 4.445312 3.132812 3.882812 3.828125 3.882812 C 4.519531 3.882812 5.078125 4.445312 5.078125 5.136719 Z M 5.078125 5.136719 "/>
<path style=" stroke:none;fill-rule:nonzero;fill:rgb(100%,100%,100%);fill-opacity:1;" d="M 13.652344 8.28125 C 13.652344 5.75 11.140625 3.699219 8.039062 3.699219 C 4.941406 3.699219 2.429688 5.75 2.429688 8.28125 C 2.429688 10.8125 4.941406 12.863281 8.039062 12.863281 C 11.140625 12.863281 13.652344 10.8125 13.652344 8.28125 Z M 13.652344 8.28125 "/>
<path style=" stroke:none;fill-rule:nonzero;fill:rgb(0%,0%,0%);fill-opacity:1;" d="M 3.941406 11.410156 C 3.941406 11.410156 5.046875 10.851562 5.1875 9.890625 C 5.332031 8.929688 4.53125 7.964844 4.105469 7.839844 C 3.675781 7.714844 2.535156 7.351562 2.4375 8.03125 C 2.335938 8.714844 2.628906 10.527344 3.941406 11.410156 Z M 3.941406 11.410156 "/>
<path style=" stroke:none;fill-rule:nonzero;fill:rgb(0%,0%,0%);fill-opacity:1;" d="M 12.136719 11.410156 C 12.136719 11.410156 11.03125 10.851562 10.886719 9.890625 C 10.746094 8.929688 11.546875 7.964844 11.972656 7.839844 C 12.402344 7.714844 13.542969 7.351562 13.640625 8.03125 C 13.742188 8.714844 13.449219 10.527344 12.136719 11.410156 Z M 12.136719 11.410156 "/>
<path style=" stroke:none;fill-rule:nonzero;fill:rgb(0%,0%,0%);fill-opacity:1;" d="M 9.179688 10.152344 C 9.179688 10.386719 8.667969 11.082031 8.039062 11.082031 C 7.410156 11.082031 6.898438 10.386719 6.898438 10.152344 C 6.898438 9.914062 7.410156 9.726562 8.039062 9.726562 C 8.667969 9.726562 9.179688 9.914062 9.179688 10.152344 Z M 9.179688 10.152344 "/>
<path style=" stroke:none;fill-rule:nonzero;fill:rgb(99.607843%,99.607843%,99.215686%);fill-opacity:1;" d="M 4.773438 9.457031 C 4.773438 9.714844 4.558594 9.929688 4.296875 9.929688 C 4.039062 9.929688 3.824219 9.714844 3.824219 9.457031 C 3.824219 9.195312 4.039062 8.984375 4.296875 8.984375 C 4.558594 8.984375 4.773438 9.195312 4.773438 9.457031 Z M 4.773438 9.457031 "/>
<path style=" stroke:none;fill-rule:nonzero;fill:rgb(99.607843%,99.607843%,99.215686%);fill-opacity:1;" d="M 12.460938 9.457031 C 12.460938 9.714844 12.25 9.929688 11.988281 9.929688 C 11.726562 9.929688 11.515625 9.714844 11.515625 9.457031 C 11.515625 9.195312 11.726562 8.984375 11.988281 8.984375 C 12.25 8.984375 12.460938 9.195312 12.460938 9.457031 Z M 12.460938 9.457031 "/>
<path style=" stroke:none;fill-rule:nonzero;fill:rgb(99.607843%,99.607843%,99.215686%);fill-opacity:1;" d="M 10.554688 9.550781 C 10.554688 9.8125 10.34375 10.023438 10.082031 10.023438 C 9.820312 10.023438 9.609375 9.8125 9.609375 9.550781 C 9.609375 9.289062 9.820312 9.078125 10.082031 9.078125 C 10.34375 9.078125 10.554688 9.289062 10.554688 9.550781 Z M 10.554688 9.550781 "/>
</g>
</svg>
