<?xml version="1.0" encoding="UTF-8"?>
<svg xmlns="http://www.w3.org/2000/svg" xmlns:xlink="http://www.w3.org/1999/xlink" width="32px" height="32px" viewBox="0 0 32 32" version="1.1">
<g id="surface1">
<path style=" stroke:none;fill-rule:nonzero;fill:rgb(61.568627%,90.588235%,97.647059%);fill-opacity:1;" d="M 32 16 C 32 24.835938 24.835938 32 16 32 C 7.164062 32 0 24.835938 0 16 C 0 7.164062 7.164062 0 16 0 C 24.835938 0 32 7.164062 32 16 Z M 32 16 "/>
<path style=" stroke:none;fill-rule:nonzero;fill:rgb(0%,0%,0%);fill-opacity:1;" d="M 27.050781 10.320312 C 27.050781 11.703125 25.925781 12.828125 24.542969 12.828125 C 23.15625 12.828125 22.035156 11.703125 22.035156 10.320312 C 22.035156 8.9375 23.15625 7.8125 24.542969 7.8125 C 25.925781 7.8125 27.050781 8.9375 27.050781 10.320312 Z M 27.050781 10.320312 "/>
<path style=" stroke:none;fill-rule:nonzero;fill:rgb(0%,0%,0%);fill-opacity:1;" d="M 10.160156 10.277344 C 10.160156 11.660156 9.039062 12.78125 7.652344 12.78125 C 6.269531 12.78125 5.144531 11.660156 5.144531 10.277344 C 5.144531 8.890625 6.269531 7.769531 7.652344 7.769531 C 9.039062 7.769531 10.160156 8.890625 10.160156 10.277344 Z M 10.160156 10.277344 "/>
<path style=" stroke:none;fill-rule:nonzero;fill:rgb(100%,100%,100%);fill-opacity:1;" d="M 27.304688 16.5625 C 27.304688 11.503906 22.277344 7.402344 16.078125 7.402344 C 9.882812 7.402344 4.855469 11.503906 4.855469 16.5625 C 4.855469 21.621094 9.882812 25.722656 16.078125 25.722656 C 22.277344 25.722656 27.304688 21.621094 27.304688 16.5625 Z M 27.304688 16.5625 "/>
<path style=" stroke:none;fill-rule:nonzero;fill:rgb(0%,0%,0%);fill-opacity:1;" d="M 7.878906 22.816406 C 7.878906 22.816406 10.09375 21.707031 10.378906 19.78125 C 10.660156 17.859375 9.066406 15.933594 8.210938 15.683594 C 7.355469 15.429688 5.074219 14.703125 4.871094 16.066406 C 4.671875 17.429688 5.257812 21.050781 7.878906 22.816406 Z M 7.878906 22.816406 "/>
<path style=" stroke:none;fill-rule:nonzero;fill:rgb(0%,0%,0%);fill-opacity:1;" d="M 24.277344 22.816406 C 24.277344 22.816406 22.058594 21.707031 21.777344 19.78125 C 21.496094 17.859375 23.089844 15.933594 23.945312 15.683594 C 24.800781 15.429688 27.082031 14.703125 27.28125 16.066406 C 27.484375 17.429688 26.898438 21.050781 24.277344 22.816406 Z M 24.277344 22.816406 "/>
<path style=" stroke:none;fill-rule:nonzero;fill:rgb(0%,0%,0%);fill-opacity:1;" d="M 18.359375 20.300781 C 18.359375 20.769531 17.335938 22.167969 16.078125 22.167969 C 14.820312 22.167969 13.796875 20.769531 13.796875 20.300781 C 13.796875 19.832031 14.820312 19.453125 16.078125 19.453125 C 17.335938 19.453125 18.359375 19.832031 18.359375 20.300781 Z M 18.359375 20.300781 "/>
<path style=" stroke:none;fill-rule:nonzero;fill:rgb(99.607843%,99.607843%,99.215686%);fill-opacity:1;" d="M 9.542969 18.910156 C 9.542969 19.433594 9.121094 19.855469 8.597656 19.855469 C 8.074219 19.855469 7.652344 19.433594 7.652344 18.910156 C 7.652344 18.386719 8.074219 17.964844 8.597656 17.964844 C 9.121094 17.964844 9.542969 18.386719 9.542969 18.910156 Z M 9.542969 18.910156 "/>
<path style=" stroke:none;fill-rule:nonzero;fill:rgb(99.607843%,99.607843%,99.215686%);fill-opacity:1;" d="M 24.925781 18.910156 C 24.925781 19.433594 24.5 19.855469 23.980469 19.855469 C 23.457031 19.855469 23.035156 19.433594 23.035156 18.910156 C 23.035156 18.386719 23.457031 17.964844 23.980469 17.964844 C 24.5 17.964844 24.925781 18.386719 24.925781 18.910156 Z M 24.925781 18.910156 "/>
<path style=" stroke:none;fill-rule:nonzero;fill:rgb(99.607843%,99.607843%,99.215686%);fill-opacity:1;" d="M 21.109375 19.101562 C 21.109375 19.625 20.6875 20.046875 20.164062 20.046875 C 19.644531 20.046875 19.21875 19.625 19.21875 19.101562 C 19.21875 18.578125 19.644531 18.15625 20.164062 18.15625 C 20.6875 18.15625 21.109375 18.578125 21.109375 19.101562 Z M 21.109375 19.101562 "/>
</g>
</svg>
