<?xml version="1.0" encoding="UTF-8"?>
<svg xmlns="http://www.w3.org/2000/svg" xmlns:xlink="http://www.w3.org/1999/xlink" width="16px" height="16px" viewBox="0 0 16 16" version="1.1">
<g id="surface1">
<path style=" stroke:none;fill-rule:nonzero;fill:rgb(31.372549%,29.411765%,35.294118%);fill-opacity:1;" d="M 4.414062 4.136719 C 4.414062 5.355469 3.425781 6.34375 2.207031 6.34375 C 0.988281 6.34375 0 5.355469 0 4.136719 C 0 2.917969 0.988281 1.929688 2.207031 1.929688 C 3.425781 1.929688 4.414062 2.917969 4.414062 4.136719 Z M 4.414062 4.136719 "/>
<path style=" stroke:none;fill-rule:nonzero;fill:rgb(38.431373%,36.470588%,41.960784%);fill-opacity:1;" d="M 3.308594 4.136719 C 3.308594 4.746094 2.816406 5.242188 2.207031 5.242188 C 1.597656 5.242188 1.101562 4.746094 1.101562 4.136719 C 1.101562 3.527344 1.597656 3.035156 2.207031 3.035156 C 2.816406 3.035156 3.308594 3.527344 3.308594 4.136719 Z M 3.308594 4.136719 "/>
<path style=" stroke:none;fill-rule:nonzero;fill:rgb(31.372549%,29.411765%,35.294118%);fill-opacity:1;" d="M 16 4.136719 C 16 5.355469 15.011719 6.34375 13.792969 6.34375 C 12.574219 6.34375 11.585938 5.355469 11.585938 4.136719 C 11.585938 2.917969 12.574219 1.929688 13.792969 1.929688 C 15.011719 1.929688 16 2.917969 16 4.136719 Z M 16 4.136719 "/>
<path style=" stroke:none;fill-rule:nonzero;fill:rgb(38.431373%,36.470588%,41.960784%);fill-opacity:1;" d="M 14.898438 4.136719 C 14.898438 4.746094 14.402344 5.242188 13.792969 5.242188 C 13.183594 5.242188 12.691406 4.746094 12.691406 4.136719 C 12.691406 3.527344 13.183594 3.035156 13.792969 3.035156 C 14.402344 3.035156 14.898438 3.527344 14.898438 4.136719 Z M 14.898438 4.136719 "/>
<path style=" stroke:none;fill-rule:nonzero;fill:rgb(92.941176%,92.941176%,93.333333%);fill-opacity:1;" d="M 15.449219 8.277344 C 15.449219 5.078125 12.113281 2.484375 8 2.484375 C 3.886719 2.484375 0.550781 5.078125 0.550781 8.277344 C 0.550781 11.476562 3.886719 14.070312 8 14.070312 C 12.113281 14.070312 15.449219 11.476562 15.449219 8.277344 Z M 15.449219 8.277344 "/>
<path style=" stroke:none;fill-rule:nonzero;fill:rgb(86.27451%,85.882353%,87.058824%);fill-opacity:1;" d="M 10.207031 13.515625 C 9.785156 13.515625 9.375 13.476562 8.976562 13.398438 C 8.835938 13.367188 8.832031 13.171875 8.972656 13.140625 C 10.171875 12.878906 11.035156 12.125 11.035156 11.035156 C 11.035156 9.929688 9.550781 8.277344 8 8.277344 C 6.734375 8.277344 5.519531 9.375 5.113281 10.378906 C 5.0625 10.503906 4.882812 10.507812 4.816406 10.386719 C 4.382812 9.589844 4.136719 8.683594 4.136719 7.722656 C 4.136719 5.414062 5.554688 3.421875 7.601562 2.492188 C 3.671875 2.652344 0.550781 5.179688 0.550781 8.277344 C 0.550781 11.476562 3.886719 14.070312 8 14.070312 C 9.277344 14.070312 10.480469 13.816406 11.53125 13.378906 C 11.105469 13.46875 10.664062 13.515625 10.207031 13.515625 Z M 10.207031 13.515625 "/>
<path style=" stroke:none;fill-rule:nonzero;fill:rgb(31.372549%,29.411765%,35.294118%);fill-opacity:1;" d="M 5.792969 7.449219 C 5.792969 8.277344 5.242188 10.484375 3.863281 10.484375 C 3.035156 10.484375 2.207031 9.65625 2.484375 8.550781 C 2.757812 7.449219 3.863281 6.34375 4.691406 6.34375 C 5.300781 6.34375 5.792969 6.839844 5.792969 7.449219 Z M 5.792969 7.449219 "/>
<path style=" stroke:none;fill-rule:nonzero;fill:rgb(31.372549%,29.411765%,35.294118%);fill-opacity:1;" d="M 10.207031 7.449219 C 10.207031 8.277344 10.757812 10.484375 12.136719 10.484375 C 12.964844 10.484375 13.792969 9.65625 13.515625 8.550781 C 13.242188 7.449219 12.136719 6.34375 11.308594 6.34375 C 10.699219 6.34375 10.207031 6.839844 10.207031 7.449219 Z M 10.207031 7.449219 "/>
<path style=" stroke:none;fill-rule:nonzero;fill:rgb(31.372549%,29.411765%,35.294118%);fill-opacity:1;" d="M 10.679688 10.839844 C 10.570312 10.730469 10.394531 10.730469 10.289062 10.839844 L 10.027344 11.097656 C 9.90625 11.21875 9.730469 11.277344 9.558594 11.253906 L 8.277344 11.070312 L 8.277344 10.332031 C 8.308594 10.320312 8.339844 10.3125 8.371094 10.296875 L 8.820312 10.070312 C 8.996094 9.984375 9.101562 9.808594 9.101562 9.617188 L 9.101562 9.613281 C 9.101562 9.332031 8.875 9.101562 8.59375 9.101562 L 7.40625 9.101562 C 7.125 9.101562 6.898438 9.332031 6.898438 9.613281 L 6.898438 9.617188 C 6.898438 9.808594 7.003906 9.984375 7.179688 10.070312 L 7.628906 10.296875 C 7.660156 10.3125 7.691406 10.320312 7.722656 10.332031 L 7.722656 11.070312 L 6.441406 11.253906 C 6.265625 11.28125 6.09375 11.21875 5.972656 11.097656 L 5.710938 10.839844 C 5.605469 10.730469 5.429688 10.730469 5.320312 10.839844 C 5.214844 10.945312 5.214844 11.121094 5.320312 11.230469 L 5.582031 11.488281 C 5.824219 11.734375 6.175781 11.851562 6.519531 11.800781 L 8 11.589844 L 9.484375 11.800781 C 9.535156 11.808594 9.585938 11.8125 9.636719 11.8125 C 9.925781 11.8125 10.210938 11.695312 10.417969 11.488281 L 10.679688 11.230469 C 10.785156 11.121094 10.785156 10.945312 10.679688 10.839844 Z M 10.679688 10.839844 "/>
<path style=" stroke:none;fill-rule:nonzero;fill:rgb(55.294118%,54.117647%,58.039216%);fill-opacity:1;" d="M 4.691406 8.136719 C 4.460938 8.136719 4.277344 7.953125 4.277344 7.722656 L 4.277344 7.449219 C 4.277344 7.21875 4.460938 7.035156 4.691406 7.035156 C 4.917969 7.035156 5.101562 7.21875 5.101562 7.449219 L 5.101562 7.722656 C 5.101562 7.953125 4.917969 8.136719 4.691406 8.136719 Z M 4.691406 8.136719 "/>
<path style=" stroke:none;fill-rule:nonzero;fill:rgb(55.294118%,54.117647%,58.039216%);fill-opacity:1;" d="M 11.308594 8.136719 C 11.082031 8.136719 10.898438 7.953125 10.898438 7.722656 L 10.898438 7.449219 C 10.898438 7.21875 11.082031 7.035156 11.308594 7.035156 C 11.539062 7.035156 11.722656 7.21875 11.722656 7.449219 L 11.722656 7.722656 C 11.722656 7.953125 11.539062 8.136719 11.308594 8.136719 Z M 11.308594 8.136719 "/>
</g>
</svg>
