<?xml version="1.0" standalone="no"?>
<!DOCTYPE svg PUBLIC "-//W3C//DTD SVG 20010904//EN"
 "http://www.w3.org/TR/2001/REC-SVG-20010904/DTD/svg10.dtd">
<svg version="1.0" xmlns="http://www.w3.org/2000/svg"
 width="1252.000000pt" height="1280.000000pt" viewBox="0 0 1252.000000 1280.000000"
 preserveAspectRatio="xMidYMid meet">
<metadata>
Created by potrace 1.15, written by Peter Selinger 2001-2017
</metadata>
<g transform="translate(0.000000,1280.000000) scale(0.100000,-0.100000)"
fill="#4caf50" stroke="none">
<path d="M7690 12789 c-172 -29 -532 -191 -857 -387 -787 -475 -1547 -1082
-2067 -1651 -124 -135 -131 -141 -168 -141 -35 0 -45 -6 -91 -57 -130 -142
-283 -346 -332 -443 -10 -19 -19 -37 -21 -38 -1 -2 -94 32 -206 76 -449 177
-755 253 -1108 278 -239 16 -442 -49 -530 -172 -57 -80 -74 -144 -74 -279 0
-357 180 -728 495 -1019 67 -63 255 -206 269 -206 4 0 18 -33 30 -72 26 -88
66 -162 132 -246 l50 -62 -67 -103 c-353 -540 -286 -1029 193 -1390 l55 -41
-29 -13 c-16 -7 -36 -12 -44 -13 -9 0 -10 -3 -5 -9 20 -19 290 -133 432 -181
82 -28 194 -69 250 -91 l101 -41 -37 -49 c-41 -55 -60 -87 -384 -669 -248
-446 -281 -512 -342 -695 -53 -160 -69 -253 -63 -383 3 -89 7 -107 36 -162
l32 -63 -38 -69 c-83 -156 -261 -347 -392 -423 -62 -36 -112 -76 -187 -152
l-101 -103 -44 5 c-23 3 -108 12 -188 21 -657 70 -1643 276 -2149 449 -102 34
-126 33 -167 -11 -51 -53 -69 -125 -68 -269 1 -108 4 -130 33 -215 116 -343
414 -556 859 -615 135 -18 856 -21 1207 -5 225 10 603 36 726 49 47 5 69 4 69
-3 0 -6 -9 -43 -20 -81 -78 -269 -86 -455 -26 -573 31 -61 123 -161 211 -232
142 -112 294 -172 470 -185 115 -8 166 -20 236 -57 67 -35 115 -82 172 -169
87 -133 267 -204 449 -179 96 14 153 41 215 102 l52 51 93 -70 c129 -98 266
-185 453 -292 88 -50 166 -94 173 -98 11 -7 12 -20 3 -68 -6 -33 -17 -113 -26
-178 -19 -148 -52 -247 -118 -356 -108 -179 -114 -222 -37 -261 186 -95 515 6
736 225 39 38 81 90 94 115 42 85 69 103 225 160 202 73 344 175 452 327 32
46 51 63 67 63 93 0 299 -25 386 -46 128 -32 300 -93 300 -106 0 -6 27 -39 60
-74 82 -89 88 -112 91 -399 2 -126 2 -298 1 -381 l-2 -152 -55 -70 c-30 -39
-55 -79 -55 -90 0 -59 218 -67 385 -14 260 84 453 249 539 462 62 153 93 472
67 683 -30 234 -88 375 -199 485 -46 46 -77 86 -83 106 -11 40 -80 121 -120
141 -58 31 -155 10 -176 -37 -7 -17 -13 -15 -76 21 -104 62 -245 171 -361 282
-59 56 -106 104 -106 108 0 4 30 24 68 45 245 140 464 375 559 599 54 129 74
223 80 388 6 163 -9 285 -54 439 -14 47 -26 91 -27 99 0 8 19 22 44 32 25 10
99 39 165 65 408 159 771 363 1039 583 l79 65 21 -29 c12 -16 50 -61 86 -98
258 -273 574 -353 910 -232 194 71 387 193 715 454 115 93 234 185 264 205
167 114 392 181 691 207 125 10 369 7 446 -7 29 -5 32 -3 38 28 3 18 10 87 16
153 l10 120 -69 66 c-45 44 -86 74 -122 88 l-54 21 60 -3 c43 -2 78 -12 123
-35 34 -17 62 -28 62 -23 0 5 -21 33 -47 61 -55 62 -128 99 -193 101 l-45 0
40 16 c25 9 77 16 137 17 l98 1 0 37 c0 40 -19 236 -25 254 -7 22 -223 -14
-342 -57 -29 -10 -53 -17 -53 -14 0 2 81 45 181 96 100 51 183 99 186 106 9
23 -94 451 -114 472 -2 3 -34 -24 -71 -60 -81 -79 -121 -109 -199 -148 -65
-33 -144 -63 -150 -58 -2 2 53 50 121 106 68 56 142 125 164 154 44 58 82 128
82 152 0 20 -78 213 -120 296 l-31 61 -28 -26 c-26 -25 -97 -53 -107 -43 -3 3
9 20 26 38 16 18 37 52 46 75 16 41 16 42 -17 91 l-32 49 -64 -34 c-34 -18
-63 -30 -63 -27 0 4 18 27 40 52 22 25 40 52 40 60 0 9 -14 33 -31 54 l-31 39
-48 -63 c-49 -64 -111 -121 -206 -190 -70 -50 -77 -47 -20 9 26 26 58 66 71
89 52 88 97 264 74 291 -9 11 -19 7 -58 -27 -75 -67 -193 -115 -176 -71 12 31
42 156 49 206 5 33 4 46 -3 41 -6 -3 -11 -14 -11 -23 0 -33 -112 -202 -133
-202 -2 0 7 21 20 48 28 58 43 141 34 202 l-6 45 -23 -39 c-25 -42 -93 -128
-98 -124 -1 2 4 28 12 58 8 30 14 77 14 105 l0 51 -63 31 -63 31 -12 -41 c-6
-23 -21 -58 -34 -77 l-22 -35 -7 82 c-6 84 -19 113 -48 113 -11 0 -20 -15 -29
-52 -15 -66 -32 -85 -33 -37 -1 45 -21 111 -35 116 -7 2 -14 -7 -17 -20 -4
-12 -22 -41 -41 -62 l-34 -40 4 60 c3 33 1 66 -4 74 -5 7 -30 15 -54 18 l-45
5 -6 -58 c-4 -33 -12 -77 -19 -99 -13 -39 -13 -38 -18 60 l-5 100 -13 -45
c-135 -472 -243 -761 -368 -982 -42 -74 -80 -124 -167 -213 -96 -100 -135
-133 -272 -223 -364 -239 -410 -272 -546 -388 -150 -128 -315 -341 -361 -466
-11 -32 -22 -58 -23 -58 -1 0 -22 7 -46 16 -96 34 -347 57 -759 69 -455 14
-831 -54 -1252 -226 -130 -53 -352 -165 -444 -224 -30 -19 -58 -35 -62 -35 -4
0 -26 18 -47 41 -49 49 -153 119 -217 145 -40 16 -49 24 -52 49 -66 452 -116
636 -238 883 l-71 144 27 56 c28 58 136 224 180 276 l24 29 69 -59 c164 -144
370 -298 562 -421 112 -72 116 -73 180 -73 l65 0 -44 46 c-25 26 -37 44 -27
40 85 -29 316 -25 480 10 85 18 239 63 250 74 5 4 -45 24 -110 44 -145 46
-210 69 -168 60 173 -35 337 -43 451 -24 98 18 225 53 217 61 -4 4 -67 22
-140 41 l-132 33 142 1 c133 0 148 2 234 32 98 33 198 80 190 88 -2 3 -42 15
-88 28 l-84 23 95 6 c99 7 174 23 274 59 l60 22 -49 12 c-27 7 -88 21 -137 30
-49 9 -87 18 -85 20 2 2 59 8 128 14 68 6 149 13 179 17 l55 6 -108 22 c-59
12 -110 25 -113 27 -3 3 20 9 51 13 110 13 446 81 439 88 -4 4 -21 7 -39 7
-117 0 -893 127 -1195 196 l-74 17 87 23 c215 57 421 148 525 232 136 109 187
204 180 334 -7 113 -55 206 -163 315 -204 203 -522 353 -987 463 l-176 41 34
73 c18 40 54 134 80 210 44 129 46 138 30 155 -16 18 -13 29 50 197 142 382
379 1062 558 1600 l97 291 40 -11 c54 -14 103 12 144 76 26 41 35 47 65 48 19
1 44 5 55 9 14 6 31 -1 65 -27 185 -143 578 -234 1010 -233 394 0 636 76 845
264 l50 45 -21 22 c-30 31 -138 71 -397 149 -476 143 -604 195 -836 338 -239
148 -686 461 -963 675 -110 85 -179 101 -328 77z m-4486 -4202 c9 -30 27 -71
41 -91 28 -41 26 -63 -5 -91 -18 -16 -19 -15 -40 51 -25 83 -38 184 -22 184 6
0 18 -24 26 -53z m5913 -3481 c12 -47 36 -119 53 -162 24 -61 28 -79 18 -86
-64 -43 -253 -150 -359 -204 l-132 -66 7 48 c3 26 6 75 6 110 l0 63 62 42 c92
63 217 187 268 267 25 39 47 71 50 71 3 1 15 -37 27 -83z m-1146 -3272 c17 -8
29 -18 26 -20 -3 -3 -20 4 -38 15 -40 25 -31 28 12 5z"/>
</g>
</svg>
